<svg xmlns="http://www.w3.org/2000/svg" viewBox="337 447 130 130">
  <path fill="#1b1b1b" d="M446.62,451.52h-88.95c-8.84,0-16,7.16-16,16v88.95c0,8.84,7.16,16,16,16h88.95c8.84,0,16-7.16,16-16v-88.95c0-8.84-7.16-16-16-16ZM397.27,542.93h-25.32c-1.07,0-1.93-.86-1.93-1.93v-58.01c0-1.07.86-1.93,1.93-1.93h24.97c1.5,0,2.42,1.63,1.66,2.92l-14.19,23.93c-.33.56-.36,1.24-.08,1.82l14.69,30.43c.62,1.28-.32,2.77-1.74,2.77ZM425.7,508.8h9.69c1.5,0,2.42,1.63,1.66,2.92l-17.99,30.28c-.35.59-.98.94-1.66.94h-8.94s0,0,0,0v-59.94c0-1.07.86-1.93,1.93-1.93h25c1.5,0,2.42,1.63,1.66,2.92l-13.01,21.9c-.76,1.29.16,2.92,1.66,2.92Z"/>
</svg>
